<svg width="25" height="24" viewBox="0 0 25 24" fill="none" xmlns="http://www.w3.org/2000/svg">
<path d="M12.5003 2.40401C12.1689 2.40401 11.8511 2.5304 11.6168 2.75536C11.3824 2.98032 11.2508 3.28544 11.2508 3.60359C11.2508 5.63326 8.69426 6.6505 7.19858 5.21461C7.08332 5.10004 6.94544 5.00866 6.79299 4.94579C6.64054 4.88292 6.47658 4.84983 6.31067 4.84844C6.14476 4.84706 5.98022 4.87741 5.82666 4.93773C5.6731 4.99804 5.53359 5.08711 5.41627 5.19974C5.29894 5.31238 5.20616 5.44631 5.14334 5.59373C5.08051 5.74116 5.04889 5.89912 5.05034 6.05839C5.05178 6.21767 5.08625 6.37508 5.15173 6.52143C5.21722 6.66779 5.31241 6.80015 5.43175 6.91081C6.92743 8.3467 5.86909 10.801 3.75364 10.801C3.42225 10.801 3.10443 10.9274 2.8701 11.1524C2.63576 11.3773 2.50412 11.6825 2.50412 12.0006C2.50412 12.3187 2.63576 12.6239 2.8701 12.8488C3.10443 13.0738 3.42225 13.2002 3.75364 13.2002C5.86784 13.2002 6.92743 15.6545 5.43175 17.0904C5.20414 17.3166 5.0782 17.6196 5.08104 17.9342C5.08389 18.2487 5.2153 18.5496 5.44697 18.772C5.67865 18.9944 5.99204 19.1205 6.31966 19.1233C6.64729 19.126 6.96292 19.0051 7.19858 18.7866C8.69426 17.3507 11.2508 18.3667 11.2508 20.3976C11.2508 20.7158 11.3824 21.0209 11.6168 21.2458C11.8511 21.4708 12.1689 21.5972 12.5003 21.5972C12.8317 21.5972 13.1495 21.4708 13.3839 21.2458C13.6182 21.0209 13.7498 20.7158 13.7498 20.3976C13.7498 18.3679 16.3064 17.3507 17.802 18.7866C17.9173 18.9012 18.0552 18.9925 18.2076 19.0554C18.3601 19.1183 18.524 19.1514 18.69 19.1528C18.8559 19.1541 19.0204 19.1238 19.174 19.0635C19.3275 19.0032 19.467 18.9141 19.5844 18.8015C19.7017 18.6888 19.7945 18.5549 19.8573 18.4075C19.9201 18.26 19.9517 18.1021 19.9503 17.9428C19.9488 17.7835 19.9144 17.6261 19.8489 17.4798C19.7834 17.3334 19.6882 17.201 19.5689 17.0904C18.0732 15.6545 19.1315 13.2002 21.247 13.2002C21.5784 13.2002 21.8962 13.0738 22.1305 12.8488C22.3649 12.6239 22.4965 12.3187 22.4965 12.0006C22.4965 11.6825 22.3649 11.3773 22.1305 11.1524C21.8962 10.9274 21.5784 10.801 21.247 10.801C19.1328 10.801 18.0732 8.3467 19.5689 6.91081C19.7965 6.68457 19.9224 6.38155 19.9196 6.06703C19.9167 5.7525 19.7853 5.45164 19.5537 5.22923C19.322 5.00681 19.0086 4.88066 18.681 4.87792C18.3533 4.87519 18.0377 4.9961 17.802 5.21461C16.3064 6.6505 13.7498 5.63446 13.7498 3.60359C13.7498 3.28544 13.6182 2.98032 13.3839 2.75536C13.1495 2.5304 12.8317 2.40401 12.5003 2.40401ZM8.76174 3.33608C8.83084 2.42953 9.25472 1.58166 9.94823 0.962819C10.6417 0.343974 11.5535 0 12.5003 0C13.4471 0 14.3589 0.343974 15.0524 0.962819C15.7459 1.58166 16.1698 2.42953 16.2389 3.33608C16.9559 2.74491 17.879 2.43557 18.8235 2.47C19.7679 2.50443 20.664 2.88008 21.3322 3.52175C22.0004 4.16342 22.3915 5.02373 22.4271 5.93043C22.4628 6.83713 22.1403 7.72329 21.5244 8.41148C22.4687 8.47766 23.3519 8.88446 23.9967 9.55014C24.6414 10.2158 24.9998 11.0911 25 12C25.0002 12.909 24.642 13.7844 23.9975 14.4503C23.353 15.1162 22.4699 15.5232 21.5256 15.5897C22.1414 16.278 22.4636 17.1643 22.4278 18.071C22.3919 18.9777 22.0006 19.8379 21.3322 20.4794C20.6638 21.1209 19.7677 21.4964 18.8233 21.5306C17.8788 21.5648 16.9557 21.2553 16.2389 20.6639C16.1698 21.5705 15.7459 22.4183 15.0524 23.0372C14.3589 23.656 13.4471 24 12.5003 24C11.5535 24 10.6417 23.656 9.94823 23.0372C9.25472 22.4183 8.83084 21.5705 8.76174 20.6639C8.04489 21.2553 7.12183 21.5648 6.17738 21.5306C5.23292 21.4964 4.33678 21.1209 3.6684 20.4794C3.00001 19.8379 2.60871 18.9777 2.57285 18.071C2.53699 17.1643 2.85921 16.278 3.475 15.5897C2.5307 15.5234 1.64753 15.1164 1.00291 14.4507C0.358298 13.7849 0 12.9096 0 12.0006C0 11.0916 0.358298 10.2163 1.00291 9.55054C1.64753 8.88475 2.5307 8.47781 3.475 8.41148C2.85733 7.72341 2.53354 6.83656 2.56858 5.92886C2.60363 5.02116 2.99492 4.15976 3.66394 3.51747C4.33297 2.87519 5.23024 2.49955 6.17574 2.4659C7.12124 2.43226 8.04502 2.74311 8.76174 3.33608Z" fill="#00BF63"/>
<path d="M12.5002 9.60142C11.8374 9.60142 11.2017 9.85419 10.7331 10.3041C10.2644 10.754 10.0011 11.3643 10.0011 12.0006C10.0011 12.6369 10.2644 13.2471 10.7331 13.697C11.2017 14.1469 11.8374 14.3997 12.5002 14.3997C13.1629 14.3997 13.7986 14.1469 14.2673 13.697C14.7359 13.2471 14.9992 12.6369 14.9992 12.0006C14.9992 11.3643 14.7359 10.754 14.2673 10.3041C13.7986 9.85419 13.1629 9.60142 12.5002 9.60142ZM8.9665 8.60817C9.42756 8.14989 9.97907 7.78434 10.5889 7.53287C11.1986 7.2814 11.8545 7.14903 12.5181 7.14349C13.1818 7.13796 13.8399 7.25936 14.4542 7.50062C15.0684 7.74189 15.6265 8.09817 16.0958 8.5487C16.565 8.99922 16.9362 9.53496 17.1875 10.1247C17.4388 10.7143 17.5652 11.3462 17.5595 11.9833C17.5537 12.6204 17.4158 13.25 17.1539 13.8355C16.8919 14.4209 16.5112 14.9503 16.0338 15.393C15.0912 16.267 13.8286 16.7506 12.5181 16.7397C11.2077 16.7288 9.95407 16.2242 9.02739 15.3345C8.1007 14.4449 7.57505 13.2414 7.56367 11.9833C7.55228 10.7252 8.05606 9.51314 8.9665 8.60817Z" fill="#00BF63"/>
</svg>
