<svg width="33" height="36" viewBox="0 0 33 36" fill="none" xmlns="http://www.w3.org/2000/svg">
<path fill-rule="evenodd" clip-rule="evenodd" d="M20.625 7.875C20.625 7.57663 20.5164 7.29048 20.323 7.0795C20.1296 6.86853 19.8673 6.75 19.5938 6.75H3.09375C2.82025 6.75 2.55794 6.86853 2.36455 7.0795C2.17115 7.29048 2.0625 7.57663 2.0625 7.875V28.125C2.0625 28.4234 2.17115 28.7095 2.36455 28.9205C2.55794 29.1315 2.82025 29.25 3.09375 29.25H19.5938C19.8673 29.25 20.1296 29.1315 20.323 28.9205C20.5164 28.7095 20.625 28.4234 20.625 28.125V23.625C20.625 23.3266 20.7336 23.0405 20.927 22.8295C21.1204 22.6185 21.3827 22.5 21.6562 22.5C21.9298 22.5 22.1921 22.6185 22.3855 22.8295C22.5789 23.0405 22.6875 23.3266 22.6875 23.625V28.125C22.6875 29.0201 22.3616 29.8786 21.7814 30.5115C21.2012 31.1444 20.4143 31.5 19.5938 31.5H3.09375C2.27324 31.5 1.48633 31.1444 0.906138 30.5115C0.325948 29.8786 0 29.0201 0 28.125L0 7.875C0 6.97989 0.325948 6.12145 0.906138 5.48851C1.48633 4.85558 2.27324 4.5 3.09375 4.5H19.5938C20.4143 4.5 21.2012 4.85558 21.7814 5.48851C22.3616 6.12145 22.6875 6.97989 22.6875 7.875V12.375C22.6875 12.6734 22.5789 12.9595 22.3855 13.1705C22.1921 13.3815 21.9298 13.5 21.6562 13.5C21.3827 13.5 21.1204 13.3815 20.927 13.1705C20.7336 12.9595 20.625 12.6734 20.625 12.375V7.875Z" fill="#00BF63"/>
<path fill-rule="evenodd" clip-rule="evenodd" d="M8.55102 18.7965C8.45498 18.692 8.37878 18.5678 8.3268 18.4311C8.27481 18.2945 8.24805 18.1479 8.24805 18C8.24805 17.852 8.27481 17.7055 8.3268 17.5688C8.37878 17.4321 8.45498 17.308 8.55102 17.2035L14.7385 10.4535C14.9322 10.2422 15.1948 10.1235 15.4686 10.1235C15.7425 10.1235 16.0051 10.2422 16.1988 10.4535C16.3924 10.6647 16.5012 10.9512 16.5012 11.25C16.5012 11.5487 16.3924 11.8352 16.1988 12.0465L11.7706 16.875H29.9061C30.1796 16.875 30.4419 16.9935 30.6353 17.2045C30.8287 17.4154 30.9374 17.7016 30.9374 18C30.9374 18.2983 30.8287 18.5845 30.6353 18.7955C30.4419 19.0064 30.1796 19.125 29.9061 19.125H11.7706L16.1988 23.9535C16.2946 24.0581 16.3707 24.1822 16.4226 24.3189C16.4745 24.4556 16.5012 24.602 16.5012 24.75C16.5012 24.8979 16.4745 25.0444 16.4226 25.181C16.3707 25.3177 16.2946 25.4419 16.1988 25.5465C16.1029 25.6511 15.9891 25.734 15.8638 25.7906C15.7385 25.8472 15.6042 25.8764 15.4686 25.8764C15.333 25.8764 15.1988 25.8472 15.0735 25.7906C14.9482 25.734 14.8344 25.6511 14.7385 25.5465L8.55102 18.7965Z" fill="#00BF63"/>
</svg>
